#!OML:ASF F:\twosubjects\two\wednesday\Session 1\rory1.ASF
:FULLY-SPECIFIED
:DEGREES
166
root 7.224 18.4907 -2.67736 5.34402 0.924533 -0.825987
lowerback -1.43211 4.52539 -1.86187
upperback -1.08521 6.06844 -5.9517
thorax 0.13965 3.04242 -4.99097
lowerneck -10.4943 -9.36359 -7.89436
upperneck 13.5153 -13.1659 10.5613
head 7.09457 -5.97305 3.3535
rclavicle -9.26337e-014 3.18055e-014
rhumerus 94.8513 2.48227 -60.1995
rradius 32.8452
rwrist 18.078
rhand -20.4494 31.9289
rfingers 7.12502
rthumb 5.90594 2.03117
lclavicle -9.26337e-014 3.18055e-014
lhumerus -5.76403 0.903559 66.8353
lradius 36.367
lwrist 6.5815
lhand -24.3843 14.818
lfingers 7.12502
lthumb 2.10625 44.7873
rfemur -2.35146 0.648628 23.8828
rtibia 44.288
rfoot 15.9569 6.89077
rtoes -1.15132
lfemur -19.0844 -7.40137 -17.0601
ltibia 28.8744
lfoot -13.9176 -1.61866
ltoes -1.95175
167
root 7.21715 18.498 -2.54557 5.20643 1.34207 -0.266289
lowerback -1.32595 4.54996 -2.4443
upperback -0.788359 6.11873 -5.98792
thorax 0.333072 3.06988 -4.69895
lowerneck -10.5376 -9.50387 -8.10967
upperneck 13.4237 -13.3246 10.6434
head 7.10905 -6.0536 3.39161
rclavicle 3.43897e-014 -4.29375e-014
rhumerus 94.1596 4.61368 -60.7012
rradius 33.8286
rwrist 17.6383
rhand -20.1583 31.1022
rfingers 7.12502
rthumb 6.18703 1.21257
lclavicle 3.43897e-014 -4.29375e-014
lhumerus -5.48313 1.09324 67.8298
lradius 36.9816
lwrist 6.01276
lhand -25.7004 17.0065
lfingers 7.12502
lthumb 0.835127 46.9846
rfemur -3.61346 0.240319 23.1827
rtibia 46.692
rfoot 14.4421 8.00102
rtoes -8.23678
lfemur -18.3067 -7.60416 -17.7541
ltibia 28.4597
lfoot -14.1791 -1.66717
ltoes -4.1542
168
root 7.21424 18.4943 -2.42816 5.17502 1.79334 0.403033
lowerback -1.17411 4.47783 -3.11322
upperback -0.572679 6.03251 -6.04026
thorax 0.401624 3.02637 -4.38861
lowerneck -10.4063 -9.50595 -8.26418
upperneck 13.0441 -13.2954 10.7884
head 6.98273 -6.04992 3.47435
rclavicle 6.36111e-015 -4.13472e-014
rhumerus 93.4823 6.73341 -60.5413
rradius 34.7062
rwrist 16.9427
rhand -20.7992 31.2741
rfingers 7.12502
rthumb 5.56825 1.36729
lclavicle 6.36111e-015 -4.13472e-014
lhumerus -5.54571 0.942461 68.6871
lradius 37.8827
lwrist 6.48122
lhand -30.3593 24.3497
lfingers 7.12502
lthumb -3.66447 54.2979
rfemur -5.0265 -0.326322 22.3611
rtibia 49.0043
rfoot 12.3578 8.19175
rtoes -11.8065
lfemur -17.6961 -7.98104 -18.5312
ltibia 28.0993
lfoot -14.2284 -1.70171
ltoes -5.05464
169
root 7.2115 18.4883 -2.31426 5.23615 2.21807 0.573431
lowerback -1.02894 4.45324 -3.29069
upperback -0.493794 5.99555 -5.95448
thorax 0.372188 3.00738 -4.21119
lowerneck -10.0765 -9.51867 -8.43777
upperneck 12.748 -13.2981 10.9266
head 6.85303 -6.06819 3.56178
rclavicle -6.14245e-014 3.65764e-014
rhumerus 92.6764 8.71919 -60.0357
rradius 35.2962
rwrist 15.9866
rhand -21.8275 32.8689
rfingers 7.12502
rthumb 4.57531 2.93829
lclavicle -6.14245e-014 3.65764e-014
lhumerus -5.89304 0.290882 69.5685
lradius 38.9759
lwrist 7.79452
lhand -27.5639 14.7297
lfingers 7.12502
lthumb -0.964723 44.7072
rfemur -6.50195 -0.793145 22.1409
rtibia 51.0927
rfoot 11.3591 5.50713
rtoes -9.49771
lfemur -17.2886 -8.07305 -18.7363
ltibia 27.8989
lfoot -14.3232 -1.96034
ltoes -6.01923
170
root 7.20141 18.4802 -2.19596 5.2511 2.4796 0.329748
lowerback -0.932605 4.57692 -3.15462
upperback -0.408633 6.15694 -5.72618
thorax 0.403007 3.08764 -4.0506
lowerneck -9.97328 -9.6754 -8.66003
upperneck 12.8762 -13.5024 10.958
head 6.91461 -6.17452 3.58378
rclavicle 2.48481e-014 -1.27222e-014
rhumerus 91.6131 10.646 -59.5612
rradius 35.9577
rwrist 15.1797
rhand -22.4556 33.4359
rfingers 7.12502
rthumb 3.9688 3.49308
lclavicle 2.48481e-014 -1.27222e-014
lhumerus -6.2429 -0.34901 70.6904
lradius 40.0942
lwrist 9.28988
lhand -28.7551 7.4226
lfingers 7.12502
lthumb -2.11515 37.3919
rfemur -7.79094 -0.982813 22.4138
rtibia 52.9262
rfoot 9.84292 2.68599
rtoes -8.96568
lfemur -16.9168 -7.96937 -18.4809
ltibia 27.8555
lfoot -14.6876 -2.12215
ltoes -8.05222
